<?xml version="1.0" encoding="UTF-8"?>
<svg id="Layer_1" xmlns="http://www.w3.org/2000/svg" version="1.1" viewBox="0 0 600 164">
  <!-- Generator: Adobe Illustrator 29.6.1, SVG Export Plug-In . SVG Version: 2.1.1 Build 9)  -->
  <defs>
    <style>
      .st0 {
        fill: #105770;
      }

      .st1 {
        fill: #1396a7;
      }
    </style>
  </defs>
  <g>
    <path class="st0" d="M521.6,104.8c.4-.7.9-1.1,1.4-1.3,2.4-.8,4.1-1.5,4.3-4,0-.1,0-.3,0-.4l-5.4-13.7c0-.2-.3-.4-.5-.4h-18.4c-.3,0-.6.2-.7.5-.8,2-2.5,6.3-4.8,12.8-.6,1.7-.2,3,1.2,3.8,1.2.7,2.4,1.3,3.5,1.6.4.1.6.5.5.9,0,.3-.4.6-.7.5h-15.5c-.4,0-.7-.3-.7-.7,0-.3.2-.6.5-.7,2.9-1,4.9-2.9,6-5.7,5.5-14,11.9-30.7,19.1-49.9.2-.5.7-.9,1.3-.8,1.4.1,2.6.4,3.4-.3,0,0,.2,0,.3,0,0,0,0,0,0,0,4.3,10.9,11.1,28.1,20.6,51.8.8,2,2.4,3.4,5,4.5.2,0,.4.2.5.4.2.3.3.6.4.9,0,.2-.1.4-.3.4,0,0,0,0,0,0h-20.6c-.1,0-.3-.1-.3-.3,0,0,0,0,0-.1ZM512.1,80.7c1.6,0,4.1,0,7.4-.1.2,0,.4-.2.4-.4,0,0,0-.1,0-.1-1.9-5.1-4.5-11.5-7.6-19.3,0-.2-.2-.3-.3-.3s-.3.1-.3.3c-3,7.9-5.4,14.3-7.3,19.4,0,.2,0,.5.2.5,0,0,0,0,.1,0,3.3,0,5.8,0,7.4,0Z"/>
    <path class="st0" d="M462.4,52.6h-9.2s0,0,0,0l-4.2,1.4c0,0-.1,0-.2,0-2.3,1.6-4,4.1-5.1,7.3-.1.3-.4.5-.8.4-.2,0-.4-.2-.4-.4-.2-.9-.3-1.5-.3-1.9.2-4.2.3-8,.4-11.4,0-.2.2-.4.4-.4h0c26.8,0,42,0,45.6,0,1,0,1.9-.1,2.7-.4.4-.1.7,0,.8.4,0,0,0,.1,0,.2l.4,12.7c0,.5-.4.9-.9.9-.2,0-.4,0-.6-.2-.2-.2-.4-.6-.6-1.2-.9-3.5-3.6-6.2-6.9-7.1-3.3-.9-6.7-.4-10.5-.5-.2,0-.4.2-.4.4,0,0,0,0,0,0v46.1c0,.2,0,.4.1.5,1,2.2,3.3,3.1,5.5,3.8.5.2.9.6,1,1.2,0,.3-.1.5-.4.6,0,0,0,0,0,0h-22.1c-.3,0-.5-.2-.5-.6,0,0,0-.2,0-.3.3-.4.7-.8,1.3-1,3.3-.9,5.6-2.6,5.6-6.3,0-14.8,0-29.5,0-43.9,0-.3-.3-.6-.6-.6Z"/>
    <path class="st0" d="M135.3,60.2c0-.1-.2-.1-.4,0,0,0,0,.1,0,.2,0,20.4,0,31.9,0,34.5,0,2.5,0,3.9.2,4.3.8,2.5,2.9,3.3,5.1,4.1.2,0,.4.2.5.3l.7.8c.2.2.2.5,0,.7,0,0-.2.1-.3.1h-17.3c-.2,0-.4-.2-.4-.4,0,0,0,0,0,0l.2-.8c0-.2.2-.4.5-.5,2.9-.8,4.8-2,5.7-4.7,0-.2,0-.4,0-.6,0-26.4,0-40.8,0-43.3,0-1.1-.5-2.1-1.4-3.1-.1-.1-.3-.3-.5-.4-1.2-.7-2.4-1.3-3.7-1.7-.2,0-.5-.3-.8-.6-.2-.3-.2-.8.1-1,.1-.1.3-.2.4-.2h12.4c.3,0,.6.1.8.4l35.7,41.7c0,0,.2,0,.3,0,0,0,0-.1,0-.2,0-1.6,0-13,0-34.1,0-.4-.3-1.2-.8-2.5-.9-2-4.3-3.5-6.1-4-.4,0-.6-.5-.5-.8,0-.3.4-.5.7-.5h18.2c.4,0,.6.3.6.7,0,.3-.2.5-.4.6-3.6,1.3-6.7,3-6.7,7.4,0,20.8,0,36.9,0,48.4,0,.3-.2.6-.6.6h-2.7c-.5,0-1-.2-1.4-.6l-38.1-44.4Z"/>
    <path class="st0" d="M240.5,48.2v13.9c0,.2-.1.3-.3.3,0,0-.1,0-.2,0-.7-.5-1.2-1.1-1.4-1.9-1-3-3.2-5.6-5.9-6.9-.2-.1-.5-.2-.8-.3-3.6-.7-7.1-.9-10.7-.6-.4,0-.7.3-.7.7,0,25.9,0,40.4,0,43.7,0,4.2,3.3,5.4,6.7,6.5.5.1.7.6.6,1.1-.1.4-.4.6-.8.6h-23.2c-.2,0-.3-.2-.3-.3,0,0,0,0,0-.1l.4-.9c0-.2.2-.3.4-.3,2.3-.6,4.2-1.3,5.7-3.4.5-.7.8-2.3.9-4.7,0-.7,0-14.9,0-42.5,0-.2-.2-.4-.4-.4h0c-2.4,0-5.2,0-8.3,0-2.9,0-5.4,1-7.3,3-1.6,1.6-2.7,4.5-3.9,6.4-.1.2-.5.3-.7.2-.2,0-.2-.3-.2-.4l.5-13.2c0-.5.4-.9.9-.9h48.6c.3,0,.5.2.5.5Z"/>
    <path class="st0" d="M327.3,104.8c.3-1.4,1.8-1.5,3-2,2.3-1,3.4-3.2,3.4-6.5,0-12.7,0-25.8,0-39.2,0-5.1-1.4-6.2-6-7.6-.5-.1-.7-.6-.6-1.1.1-.4.5-.6.9-.6h40c.2,0,.4.2.4.4l.4,12.3c0,.5-.4.9-.9.9-.4,0-.8-.3-.9-.7-.6-2.7-2.2-5-4.6-6.9-.3-.2-.6-.3-.9-.4-.8-.2-1.7-.4-2.7-.7,0,0-.1,0-.2,0h-15c-.2,0-.3.1-.3.3h0v21.2c0,.2.1.3.3.3,4.2,0,8.5,0,12.8,0,4,0,6.3-.6,7.6-4.4.2-.4.6-.7,1.1-.6.1,0,.3.1.4.2.3.3.4.8.4,1.4,0,5,0,9.8-.2,14.3,0,.1-.1.3-.3.3,0,0,0,0,0,0h-1.3c-.1-.1-.2-.2-.2-.4-.2-2.5-1.1-4.4-2.9-5.6-1.2-.8-3.3-1.2-6.3-1.1-1.7,0-5.4,0-11.1,0-.2,0-.3.1-.3.3,0,0,0,0,0,0v20c0,.3.1.6.4.8.8.7,1.5,1,2.3,1,8.1,0,13-.2,14.6-.5,3.6-.7,6.2-2.5,7.9-5.2.2-.4.7-1.2,1.5-2.6.3-.5.9-.6,1.4-.4.3.2.5.6.5,1l-1.2,11.1c0,.6-.6,1.1-1.3,1.1h-41.5c-.2,0-.4-.2-.4-.4,0,0,0,0,0,0Z"/>
    <path class="st0" d="M71.1,59.9s0,0,0,0c0,0,0,0,0,0-3.9,7.8-6.9,14-9.1,18.7-3.7,8-7.5,16.2-11.6,24.8-.6,1.2-1,1.8-1.3,1.9-.4,0-1,0-1.9,0-.3,0-.6-.2-.7-.5l-20.8-45.1c0,0-.1-.1-.2,0,0,0,0,0,0,0,0,.2-.1.6-.1,1.2,0,24.2,0,36.7,0,37.5.1,2.7,2.8,4.5,5.4,5.1.3,0,.5.3.5.6v.6c0,.3-.3.6-.6.6H14.1c-.5,0-.9-.4-.9-.9,0-.4.3-.8.6-.9,2.6-.8,5.1-2.2,5.9-4.9,0-.2,0-1.7,0-4.6,0-8.1,0-21.5,0-40.3,0-.2,0-.4-.1-.5-1.1-2.2-3.7-3.2-5.7-3.8-.4-.1-.7-.6-.6-1,0-.4.4-.6.8-.6h15.7c0,0,.2,0,.2.1l20.2,43.9c0,0,.2.1.3,0,0,0,0,0,0,0l20.5-43.6c.1-.3.4-.4.7-.4h14.1c.3,0,.6.3.6.6h0v.5c0,.4-.3.8-.8.8-3.6.4-5.3,2.8-5.3,7.2.1,10.9.2,23.6,0,38.2,0,.3,0,1.3,0,3.2,0,2.8,2.9,4.6,5.3,5.2.5.1.8.6.7,1.1-.1.4-.5.7-.9.7h-19.5c-.5,0-.9-.4-.9-.9,0-.4.3-.7.7-.8,1.7-.4,4-1.7,4.8-3.4.2-.5.3-1.3.3-2.5,0-16.7,0-29.3,0-37.7Z"/>
    <path class="st0" d="M104.7,47.7c.1,0,3.5,0,10.2,0,.3,0,.6,0,.8.3.3.2.3.6.1.9,0,.1-.2.2-.3.2-.6.2-1.7.7-3.3,1.6-1.8,1-2.7,2.7-2.7,5,0,17.7,0,31.2,0,40.6,0,4.3,2.2,6,6.1,7.2.5.1.8.6.7,1.1-.1.4-.5.7-1,.7-.9,0-4.4,0-10.5,0-6.1,0-9.6,0-10.5,0-.5,0-.9-.3-1-.8,0-.4.2-.9.7-1,3.8-1.1,6.1-2.8,6.1-7.2,0-9.4,0-23,0-40.6,0-2.4-.9-4-2.7-5-1.7-.9-2.8-1.5-3.3-1.6-.3,0-.5-.4-.4-.8,0-.1.1-.2.2-.3.2-.2.5-.3.8-.3,6.7,0,10,0,10.2,0Z"/>
    <path class="st0" d="M265.7,105.1c-.4-.2-.6-.7-.4-1.1,0-.2.2-.3.4-.4,2.4-.9,4.9-1.9,5.6-4.5.1-.4.2-2.1.2-5.1,0-16.9,0-30.3,0-40.2,0-.2,0-.3-.1-.5-1-2-2.6-3.2-4.8-3.6-.6-.1-1-.3-1.2-.7-.2-.4-.1-.9.3-1.2.1,0,.3-.1.4-.1,15.7,0,24.9,0,27.7,0,.3,0,.6,0,.9,0,.7.2,2.1.4,4.1.7,5.2.8,9.9,2.8,14,5.9,3.7,2.8,6.4,6.6,7.9,11.2,2.4,7,2.4,14,0,21.1-1.5,4.6-4.1,8.5-7.8,11.5-3.4,2.8-7.5,4.8-12.4,6.1-2.4.7-7,1-13.8.9-13.5,0-20.3,0-20.4,0-.2,0-.5,0-.7-.1ZM281.8,52.5c-.3,0-.6.2-.6.5,0,0,0,0,0,0,0,14.3,0,29.1,0,44.4,0,1.3.2,2.1.7,2.5.6.6,1.5.9,2.5.9,4.9,0,10.9,0,15.2-1.7,5.7-2.2,9.4-6.5,11.1-13,3-11.4,1-26.6-10.9-32.1-4.6-2.1-10.4-2.1-15.9-1.7-.7,0-1.3,0-2,0Z"/>
    <path class="st0" d="M388.3,59.9c0,0-.2,0-.2,0,0,0,0,0,0,.1,0,12.3,0,24.9,0,37.8,0,3.7,2.6,4.5,5.8,5.6.4.1.7.6.8,1.4,0,.2-.1.4-.3.4,0,0,0,0,0,0-.1,0-5.8,0-16.9,0s-.6,0-.6,0c-.3-.2-.5-.6-.3-.9,0-.1.2-.3.3-.3,2.3-1,4.3-1.6,5.8-4.6,0-.1,0-.3,0-.4,0-16.6,0-31.4,0-44.4,0-2.9-3.5-4.3-5.8-5.1-.5-.2-.8-.7-.6-1.2.1-.4.5-.7.9-.7h12.8c0,0,.2,0,.2,0l36,41.9s0,0,0,0c0,0,0,0,0,0,0-4.8,0-16.1,0-34,0-.6-.4-1.8-1.3-3.5-.1-.2-.2-.4-.4-.5-1.7-1.2-3.3-2.1-4.9-2.5-.4-.1-.6-.5-.5-.9,0-.3.4-.5.7-.5h17.4c.4,0,.7.3.7.7,0,.2-.1.5-.3.6l-4.2,2.3c-.2.1-.4.3-.5.4-1,1.1-1.5,2.9-1.5,5.4,0,18.3,0,34.3,0,47.9,0,.2-.2.4-.4.4h-3c-.3,0-.6-.1-.8-.4l-38.6-45Z"/>
    <path class="st0" d="M569.1,48.1c0,.7-.4,1.3-1.2,1.6-2.5,1-4.2,1.6-5.2,3.8,0,.2-.1.4-.2.7,0,17.1,0,31.7,0,43.7,0,1.7,1,2.6,3.1,2.7,3.8.1,7.2,0,10.2-.2,5.5-.5,7.3-3.9,9.9-8,.3-.4.8-.5,1.2-.3.2.1.4.4.4.7,0,1.4,0,2.8-.3,4.3-.5,2.6-1,5.2-1.3,7.7,0,.2-.2.4-.4.4h-38.1c-.5,0-.9-.4-.9-.9,0-.4.3-.7.7-.8,3.2-.9,6-2.5,6-6.2,0-21.5,0-35.4,0-41.7,0-3.7-2.3-5.3-5.7-6.2-.3,0-.5-.3-.7-.6-.2-.4,0-.8.3-1,.1,0,.2,0,.3,0h21.5c.2,0,.4.2.4.4Z"/>
    <path class="st1" d="M236.7,130v7.8c0,.4-.4.7-.8.7-.3,0-.6-.2-.7-.5-1.1-3.4-2.4-5.9-6-7.2-4.2-1.6-8.1-1.1-11.9,1.3-2.7,1.8-4.2,4.6-4.7,7.4-.6,3.2-.5,8,.6,11.1,2,5.9,6.4,8.6,13.2,8.1,5-.3,7.4-3.4,9.4-7.7.1-.3.5-.4.8-.3.2.1.4.3.3.6l-.7,6.9c0,.2,0,.4-.2.5-.7.7-1.8,1.3-3.3,1.8-4.1,1.3-8.2,1.5-12.4.9-.8-.1-1.4-.5-2.3-.5-.4,0-.7,0-1-.2-4.2-1.7-7.9-4.2-9.8-8.3-2.6-5.6-2.5-11.1.2-16.7,3.1-6.2,9.7-9,16.6-9,5,0,9.1.9,12.3,2.7.2.1.4.4.4.6Z"/>
    <path class="st1" d="M278.8,160c1.2-.9,3.3-1.1,2.5-3.6-.3-1-1.1-3.1-2.4-6.3-.1-.3-.4-.5-.7-.5h-10.3c-.2,0-.4.1-.5.3-1,2-1.7,3.7-2.1,5.2-.8,2.7.2,4.2,3,4.5.2,0,.4.2.4.4v.3c0,.2-.2.4-.4.4h-11c-.4,0-.7-.3-.7-.7,0-.3.1-.5.4-.6l2-1c.1,0,.2-.1.3-.2,1.1-1.2,2-2.7,2.7-4.5,2.1-5.2,3.3-8.4,3.7-9.5,1.7-4.7,3.9-10.2,6.7-16.8.1-.3.4-.5.7-.5h2.3c.3,0,.6.2.8.5,4.8,12.1,8.6,21.6,11.4,28.4.7,1.8,2.1,2.9,4.1,3.4.3,0,.6.2.7.3.2.2.2.5.2.7,0,.2-.2.4-.4.4h-13.1c-.3,0-.5-.2-.5-.5,0-.2,0-.3.2-.4ZM273.3,135.2c-1,1.5,0,0-2.4,5.2s-1.5,3.9-2.2,5.9c0,.2,0,.3.2.4,0,0,0,0,.1,0h8.6c0,0,.1,0,.1-.1,0,0,0,0,0,0l-4.5-11.3s0,0,0,0c0,0,0,0,0,0Z"/>
    <path class="st1" d="M384.1,139.3c.2-.2.5-.2.7,0,.1.1.2.3.2.4-.3,2.1-.3,5-.1,8.7,0,.4,0,.7-.1.8-.1.3-.5.3-.7.2-.1,0-.2-.2-.2-.3-.8-2.3-1.7-3.3-4.3-3.5-2.4-.2-4.5-.3-6.3-.2s-.4.2-.4.5v10.6c0,.7.5,1.3,1.2,1.4,2.4.2,4.8.2,7.4,0,3.2-.2,5.6-1.8,7.2-4.7.1-.2.4-.3.7-.2.2,0,.3.2.3.4v.9c0,0,0,.2,0,.3l-1.1,5.3c-.1.5-.6.9-1.2.9-11.1,0-19.1,0-24.1,0-.3,0-.5,0-.7-.1-.3-.1-.4-.5-.2-.7,0-.1.2-.2.3-.2,2.1-.8,3.8-1.7,3.8-4.3.2-7.9.2-15.8,0-23.8,0-.3,0-.6-.3-.8-.8-1.2-2-1.9-3.6-2.1-.3,0-.4-.3-.4-.5,0,0,0,0,0,0v-.3c.1-.3.4-.6.8-.6h24.4c.2,0,.3.1.4.3l.6,7.3c0,.3-.2.6-.6.7-.3,0-.5-.1-.6-.4-.9-2.4-2.4-3.9-4.6-4.6h-.8c0-.1-8.7-.1-8.7-.1-.2,0-.4.2-.4.4v11.1c0,.2.2.5.5.5,2.8,0,5.1,0,6.9,0,1.7,0,2.6-.6,3.2-2,.3-.5.5-.9.7-1.2Z"/>
    <path class="st1" d="M330.8,146c-.2,0-.3.3-.3.5,0,0,0,0,0,.1,1.9,2.4,4,5.3,6.5,8.7,1.6,2.2,3.6,3.8,6,4.6.2,0,.4.3.3.6,0,0,0,.1-.1.2-.2.1-.3.2-.5.2-.7,0-3.3,0-7.7,0-.5,0-1.1-.3-1.4-.7-2.4-2.9-4.8-6.4-7.4-10.5-1-1.7-2.5-2.4-4.5-2.2-.2,0-.4.2-.4.4,0,2.1,0,4.9,0,8.4,0,2.5,1.5,2.8,3.6,3.3.1,0,.3.1.4.2,0,0,.1.1.1.1.2.2.2.6,0,.8-.1,0-.2.2-.4.2h-13.8c-.3,0-.5-.2-.5-.5,0-.2.1-.4.3-.5,1.6-.7,3.5-1.4,3.9-3,0-.2,0-1.1,0-2.8,0-10.4,0-17.4,0-20.9,0-3.1-1.3-3.5-4-4.3-.3,0-.6-.4-.5-.8,0-.3.3-.5.6-.5,3.7-.1,7.4-.2,11.1-.2,6.4,0,15.3.7,15.4,9.1,0,4.7-2.3,7.9-7.1,9.5ZM321.4,130.5v14c0,0,0,.2,0,.2h3c3.8,0,6.9-2.7,6.9-6.2v-1.8c0-3.5-3-6.3-6.8-6.3h-3c0,0-.2,0-.2.1h0Z"/>
    <rect class="st1" x="411.7" y="142.7" width="176.2" height="2.7" rx="1.3" ry="1.3"/>
    <rect class="st1" x="12.1" y="143.1" width="171" height="2.3"/>
  </g>
  <path class="st1" d="M103.8,40.2S96.3,3,141.2,2.3c0,0,1.8,33.9-34.2,36.9,0,0,7.8-14.9,17.5-22.4,0,0-6.6,2-20.6,23.3Z"/>
  <path class="st1" d="M101.7,40.2s-4.6-25.5-30.4-26.9c0,0,1.5,27.1,30.4,26.9Z"/>
</svg>